<svg id="visual" viewBox="0 0 1920 1080" width="1920" height="1080" xmlns="http://www.w3.org/2000/svg" xmlns:xlink="http://www.w3.org/1999/xlink" version="1.1"><path d="M0 163L175 163L175 174L349 174L349 379L524 379L524 303L698 303L698 368L873 368L873 195L1047 195L1047 282L1222 282L1222 465L1396 465L1396 195L1571 195L1571 195L1745 195L1745 368L1920 368L1920 336L1920 0L1920 0L1745 0L1745 0L1571 0L1571 0L1396 0L1396 0L1222 0L1222 0L1047 0L1047 0L873 0L873 0L698 0L698 0L524 0L524 0L349 0L349 0L175 0L175 0L0 0Z" fill="#77aca2"></path><path d="M0 325L175 325L175 314L349 314L349 455L524 455L524 498L698 498L698 465L873 465L873 336L1047 336L1047 465L1222 465L1222 638L1396 638L1396 357L1571 357L1571 379L1745 379L1745 584L1920 584L1920 519L1920 334L1920 366L1745 366L1745 193L1571 193L1571 193L1396 193L1396 463L1222 463L1222 280L1047 280L1047 193L873 193L873 366L698 366L698 301L524 301L524 377L349 377L349 172L175 172L175 161L0 161Z" fill="#6b9075"></path><path d="M0 541L175 541L175 563L349 563L349 703L524 703L524 725L698 725L698 714L873 714L873 530L1047 530L1047 563L1222 563L1222 768L1396 768L1396 573L1571 573L1571 465L1745 465L1745 833L1920 833L1920 746L1920 517L1920 582L1745 582L1745 377L1571 377L1571 355L1396 355L1396 636L1222 636L1222 463L1047 463L1047 334L873 334L873 463L698 463L698 496L524 496L524 453L349 453L349 312L175 312L175 323L0 323Z" fill="#66724d"></path><path d="M0 995L175 995L175 962L349 962L349 995L524 995L524 984L698 984L698 941L873 941L873 930L1047 930L1047 973L1222 973L1222 1016L1396 1016L1396 973L1571 973L1571 897L1745 897L1745 973L1920 973L1920 941L1920 744L1920 831L1745 831L1745 463L1571 463L1571 571L1396 571L1396 766L1222 766L1222 561L1047 561L1047 528L873 528L873 712L698 712L698 723L524 723L524 701L349 701L349 561L175 561L175 539L0 539Z" fill="#60532f"></path><path d="M0 1081L175 1081L175 1081L349 1081L349 1081L524 1081L524 1081L698 1081L698 1081L873 1081L873 1081L1047 1081L1047 1081L1222 1081L1222 1081L1396 1081L1396 1081L1571 1081L1571 1081L1745 1081L1745 1081L1920 1081L1920 1081L1920 939L1920 971L1745 971L1745 895L1571 895L1571 971L1396 971L1396 1014L1222 1014L1222 971L1047 971L1047 928L873 928L873 939L698 939L698 982L524 982L524 993L349 993L349 960L175 960L175 993L0 993Z" fill="#56351e"></path></svg>